<svg width="30" height="25" viewBox="0 0 39 38" fill="none" xmlns="http://www.w3.org/2000/svg">
<path fill-rule="evenodd" clip-rule="evenodd" d="M19.0308 3.94275C23.2532 3.94275 26.7413 7.02599 27.1713 10.9694L27.2914 10.9707C29.6337 10.9707 32.4816 12.4615 33.4427 16.6429L34.7173 26.097C35.1744 29.1482 34.6026 31.5957 33.0147 33.3513C31.4348 35.0975 28.9342 36.0217 25.7826 36.0217H12.2974C8.83558 36.0217 6.42381 35.209 4.92312 33.5386C3.41597 31.8636 2.91197 29.351 3.42566 26.0722L4.6792 16.7435C5.50305 12.4662 8.51574 10.9707 10.8484 10.9707C11.0497 9.19116 11.887 7.49822 13.2154 6.22926C14.7419 4.77561 16.8468 3.94275 18.9968 3.94275H19.0308ZM27.2914 13.2928H10.8484C10.136 13.2928 7.75489 13.5684 7.07158 17.1042L5.82451 26.3927C5.41905 28.9981 5.73243 30.8836 6.7582 32.0246C7.77105 33.1516 9.58351 33.6996 12.2974 33.6996H25.7826C27.4755 33.6996 29.7871 33.376 31.1828 31.831C32.291 30.6065 32.6722 28.7829 32.3168 26.4097L31.0584 17.0407C30.5221 14.7325 29.107 13.2928 27.2914 13.2928ZM23.742 17.6028C24.4108 17.6028 24.9907 18.123 24.9907 18.7639C24.9907 19.4048 24.4851 19.9249 23.8163 19.9249H23.742C23.0733 19.9249 22.5305 19.4048 22.5305 18.7639C22.5305 18.123 23.0733 17.6028 23.742 17.6028ZM14.3242 17.6028C14.9929 17.6028 15.5729 18.123 15.5729 18.7639C15.5729 19.4048 15.0656 19.9249 14.3969 19.9249H14.3242C13.6554 19.9249 13.1126 19.4048 13.1126 18.7639C13.1126 18.123 13.6554 17.6028 14.3242 17.6028ZM19.0259 6.26486H19.0017C17.4816 6.26486 16.0003 6.85159 14.9261 7.87486C14.051 8.70969 13.4787 9.80717 13.2936 10.97L24.7293 10.9704C24.3142 8.31046 21.9141 6.26486 19.0259 6.26486Z" fill="white"/>
</svg>
