<svg width="25" height="15" viewBox="0 0 25 15" fill="none" xmlns="http://www.w3.org/2000/svg">
<path fill-rule="evenodd" clip-rule="evenodd" d="M14.4647 13.6944C13.996 14.1625 13.3606 14.4255 12.6981 14.4255C12.0356 14.4255 11.4002 14.1625 10.9314 13.6944L1.50141 4.26771C1.03264 3.79872 0.769375 3.16272 0.769531 2.49962C0.769688 1.83653 1.03325 1.20065 1.50224 0.731879C1.97123 0.263109 2.60723 -0.000156211 3.27033 6.95389e-08C3.93343 0.00015635 4.56931 0.263721 5.03808 0.732712L12.6981 8.39271L20.3581 0.732712C20.8294 0.27709 21.4608 0.0248021 22.1163 0.030187C22.7717 0.035572 23.3989 0.298198 23.8626 0.761502C24.3264 1.22481 24.5896 1.85172 24.5956 2.50721C24.6016 3.1627 24.3499 3.79433 23.8947 4.26605L14.4664 13.696L14.4647 13.6944Z" fill="white"/>
</svg>
