<svg width="25" height="19" viewBox="0 0 25 19" fill="none" xmlns="http://www.w3.org/2000/svg">
<path d="M22.3333 9.57412H9.66667M19.6667 12.7894L23.6667 9.57412L19.6667 6.35882M13 4.21529V3.14353C13 2.57503 12.719 2.02982 12.2189 1.62783C11.7189 1.22584 11.0406 1 10.3333 1H3.66667C2.95942 1 2.28115 1.22584 1.78105 1.62783C1.28095 2.02982 1 2.57503 1 3.14353V16.0047C1 16.5732 1.28095 17.1184 1.78105 17.5204C2.28115 17.9224 2.95942 18.1482 3.66667 18.1482H10.3333C11.0406 18.1482 11.7189 17.9224 12.2189 17.5204C12.719 17.1184 13 16.5732 13 16.0047V14.9329" stroke="#AEAEAE" stroke-width="1.4" stroke-linecap="round" stroke-linejoin="round"/>
</svg>
