<svg width="26" height="27" viewBox="0 0 26 27" fill="none" xmlns="http://www.w3.org/2000/svg">
<path d="M1 21.8478C1 19.7665 1.61825 17.7703 2.71874 16.2986C3.81922 14.8268 5.31181 14 6.86813 14H18.6044C20.1607 14 21.6533 14.8268 22.7538 16.2986C23.8543 17.7703 24.4725 19.7665 24.4725 21.8478C24.4725 22.8885 24.1634 23.8866 23.6132 24.6225C23.0629 25.3583 22.3166 25.7717 21.5385 25.7717H3.93407C3.1559 25.7717 2.40961 25.3583 1.85937 24.6225C1.30912 23.8866 1 22.8885 1 21.8478Z" stroke="#AEAEAE" stroke-width="1.17" stroke-linejoin="round"/>
<path d="M12.4011 12.7717C14.8318 12.7717 16.8022 10.1365 16.8022 6.88587C16.8022 3.63519 14.8318 1 12.4011 1C9.97044 1 8 3.63519 8 6.88587C8 10.1365 9.97044 12.7717 12.4011 12.7717Z" stroke="#AEAEAE" stroke-width="1.17"/>
</svg>
